<svg xmlns="http://www.w3.org/2000/svg" width="1280" height="670" viewBox="0 0 1280 670">
  <path d="M625.5,277l-5-.24c-.39-4.92-.58-7.37-1-12.26l4.63-2.5C624.69,268,625,271,625.5,277ZM456.25,449.9,464.5,455c-.34,6.47-.51,9.71-.84,16.2-4.22,6-6.34,8.93-10.57,14.79.2,6.8.3,10.21.5,17-3.18,6.55-4.76,9.81-7.94,16.31l-24.31,9.07c-.77,4.16-1.15,6.24-1.92,10.4-6.58,9.31-13.06,18.9-20.53,27.53l-11.32-1c2,4.34,3,6.53,4.73,10.91-3.79,2.56-5.72,3.84-9.65,6.39l-11-1c-1.87,4.25-2.88,6.37-4.95,10.62l-6.16-1.63c-.61,2.5-.92,3.75-1.57,6.26-.19,1.43-.29,2.15-.49,3.58-1.25,3.4-1.89,5.11-3.15,8.52l-7.57,5c2.35,3.27,3.53,4.92,5.95,8.21-5.06,7.61-7.55,11.41-11.92,19,2.15,5.84,3.34,8.77,6.08,14.66,0,0,12.16,7.16,10.85,7.35S346.59,666,346.59,666c-4.31-2.3-6.45-3.45-10.7-5.74.32-2,.52-3,.95-5-4.65-3.46-6.93-5.19-11.41-8.63,1.46-2,2.21-3,3.75-5-3-4.17-4.41-6.25-7.17-10.39-2-7.89-2.73-11.82-4.13-19.64,3.34-2.24,5-3.36,8.36-5.62.92-5.69,1.41-8.53,2.27-14.19-.36-8.24-.56-12.34-1.53-20.45a118.72,118.72,0,0,0,8.69-18.12c-.74-7.21-1.72-10.73-3.1-17.79,1.27-4.13,1.91-6.21,3.18-10.38-1.26-11.53-1.88-17.3-3.1-28.84-9.06-6.08-13.59-9.09-22.66-15.05q-11.69-17.06-23.56-34c.83-4.29,1.24-6.44,2.06-10.73-.82-3.66-1.23-5.48-2.05-9.12,5.63-5.21,8.42-7.83,14-13.1-1.93-6.14-2.9-9.19-4.84-15.24-2.05-1.2-3.07-1.8-5.13-3l-6.07,3.73c-7.2-4.05-10.82-6.05-18.11-10-2.49-2.57-3.73-3.84-6.24-6.38-7.76-2.51-11.67-3.75-19.57-6.2-3.25-2.63-4.89-3.93-8.17-6.52-4.87.07-7.35.09-12.21.18q-16.38-7-32.85-13.68c-.08-3.31-.15-4.95-.2-8.22q-12-16.5-24.05-33L158.63,317c6.27,11.24,9.34,16.78,15.25,27.65-1.72,1.16-2.57,1.73-4.29,2.87q-14.75-20.86-29.53-41.72l-8.62-5.51c-.82-5.17-1.25-7.77-2.13-13-3.47-3.3-5.2-5-8.68-8.29q4.73-17.81,9.42-35.64c-4.76-6.18-7.15-9.26-12-15.34,1.39-2.06,2.09-3.08,3.5-5.13-2.62-7-4-10.52-6.66-17.32-3.76-3.1-5.65-4.63-9.46-7.65-1.11-3.5-1.67-5.23-2.8-8.63-3.89-3.74-5.85-5.58-9.83-9.14-3.59-2.09-5.4-3.12-9-5.12-6.18-1.93-9.29-2.86-15.52-4.59-4.75,1.16-7.09,1.76-11.71,3-4.8-.66-7.2-1-12-1.49-1.81,2.66-2.69,4-4.43,6.76,0,0,8.4,1.48,6.59,2.17s-7.84,5.38-7.84,5.38c-3-1.07-4.47-1.58-7.47-2.56-5.81,3.42-8.64,5.19-14.15,8.89-6.61,2.51-9.83,3.85-16.12,6.73,0,0-1.22-2-.26-2.49s10.89-7,10.89-7c1.36.2,2,.31,3.41.53,2.4-2.3,3.62-3.43,6.09-5.65,2.69-2.47,4.06-3.68,6.85-6.06-.76-1.39-1.15-2.08-1.93-3.43-4.83-.29-7.23-.38-12-.46.24-2.18.26-3.16.47-5.19-3.18-.39-4.77-.57-7.92-.86-.29-1.61-.43-2.4-.69-3.95-.94-1.5-1.41-2.23-2.33-3.67,2.75-1.87,4.17-2.79,7.06-4.62-.23-1-.35-1.45-.58-2.4,1.72-.51,2.59-.76,4.34-1.26,4.31-.57,6.5-.82,10.91-1.29,2.34-2.53,3.55-3.79,6.07-6.36l-3.61-.46-4.95,2.36c-4.94.39-7.39.61-12.21,1.14-.78-1.55-1.17-2.31-1.94-3.83l-2.1-1.73c7.28-2.74,11.07-4.1,18.91-6.81.83,1.18,1.25,1.77,2.08,3,3.45-1,5.19-1.5,8.72-2.49-2.18-1.61-3.27-2.39-5.48-3.93-1.35-3.08-2-4.62-3.38-7.71l6.34-3.48c3.33-.69,5-1,8.39-1.7l17.13-9.29c8.94-2.78,13.5-4.17,22.66-6.94,6.25,2.17,9.31,3.34,15.32,5.83,12,1.77,17.83,2.89,29.2,5.48,4.69.62,7,1,11.61,1.68,1.17,1.74,1.74,2.62,2.89,4.38,4.15-1.3,6.21-2,10.33-3.29l3.06,2.38c5.42-1.33,8.11-2,13.43-3.36,5-.21,7.5-.3,12.39-.48,0,0-1.92,6.23-.57,6.09s13.34-.83,13.34-.83c6.34,3.65,9.52,5.37,15.79,8.93l6,5.95c5.69.31,8.5.48,14.07.82,1.08-1.41,1.61-2.11,2.68-3.53-5.21-.38-7.83-.57-13.14-.93l-5.06-5.78-5.86-4.4c2.65-1.89,4-2.84,6.55-4.73l-5-4.87c2.44-2,3.65-3,6-5l-.75-5.14c-3.72,1.93-5.61,2.9-9.44,4.85-3.13-.75-4.7-1.13-7.88-1.86.24-2,.36-3,.61-5,4.8-4.47,7.15-6.7,11.72-11.13,1.35-2.55,2-3.83,3.35-6.38,7.47,1.37,11.12,2.1,18.35,3.57.64,4,1,6,1.63,10l7.7,5.93,6.39.53c1.65-2.29,2.47-3.43,4.08-5.71,2.76-1.77,4.13-2.64,6.82-4.39l6.52,3.16c-4,6.58-6.11,9.89-10.47,16.52,2.06,4.42,3.1,6.62,5.18,11-5.79,4.44-8.75,6.67-14.8,11.12l5.27,4.16,10.49-1.57c-.06-2.43-.1-3.65-.18-6.08,4.73-2.88,7.06-4.32,11.64-7.19.72-3.31,1.06-5,1.72-8.27-3.75-4.59-5.62-6.89-9.32-11.52l1.91-3.15,3.63,1.2c1.09-3.23,1.63-4.85,2.67-8.09l8.87-1.31s-.85,11.41.46,10,9.66-8.17,9.66-8.17c2.94,1.22,4.42,1.83,7.4,3-4.47,3.71-6.74,5.57-11.38,9.32-.45,5.72-.71,8.58-1.32,14.32,1.22,4.1,1.82,6.15,3,10.25l5.23.35c-.71,3.17-1.08,4.76-1.85,7.94,5.29-4.48,7.88-6.72,12.95-11.17,0,0-12.83-3.64-11.56-5.71s.6-11,.6-11c5.72-5.8,8.49-8.67,13.88-14.38,3.73,1,5.61,1.49,9.39,2.47,7.14.74,10.75,1.1,18.06,1.81,1.4,4.42,2.09,6.63,3.4,11.07,7.42,5.16,11.18,7.73,18.6,13-2.37,4-3.6,6-6.12,10.11,7.66,4.27,11.48,6.42,18.94,11-4.15,4.07-6.19,6.1-10.24,10.14l-6.55,0c2,4.26,3.07,6.41,5.2,10.73-1.92,1.95-2.87,2.92-4.77,4.87L348.71,175c-6.35-2.59-9.51-3.86-15.77-6.36-1.11-2.72-1.65-4.07-2.72-6.77,0,0-12,1.86-12.13-.1a31.49,31.49,0,0,0-.77-4.21L328,155.08c3.59-5.41,5.45-8.11,8.85-13.45-4.81.39-7.21.6-12,1-.33-1.39-.49-2.09-.83-3.48,1.21-1.82,1.82-2.73,3-4.55-1.08-3-1.64-4.47-2.78-7.42-4.83,5.57-7.31,8.38-12.44,14,.49,1.5.74,2.25,1.22,3.75-4.26,4-6.44,6-10.82,10,2.7,3.72,4.07,5.61,6.85,9.4l-3.84,2-7.89-2.14-6.17,3.25-4.22-6.36c-5.47,2.39-8.21,3.58-13.72,6,0,1.41,0,2.12-.08,3.55-7.43,6.18-11.13,9.25-18.59,15.4,2.12,5.38,3.21,8.1,5.43,13.58,8.89,4.26,13.33,6.42,22.2,10.84a69.13,69.13,0,0,0,7.05.45c1.62-.13.35,13.22.35,13.22,1.84,2.32,2.76,3.48,4.6,5.82l5.3-5.51c-.11-4.93-.16-7.39-.23-12.28l9.49-4.83c.35-3.17.52-4.75.89-7.9-2.14-2.54-3.21-3.8-5.34-6.31,2.11-2.48,3.17-3.71,5.29-6.19.76-5.45,1.16-8.16,2-13.57,5.69.25,8.54.38,14.24.66l10.38,8.54c.37,4.19.57,6.29,1,10.51l3.61,2.46c4.54-4.76,6.82-7.15,11.43-11.93,3.24,7.17,4.91,10.78,8.32,18.08-.08,2.79-.11,4.19-.17,7,7.29,4.54,11,6.84,18.39,11.51.51,6.21.77,9.33,1.31,15.58,3.51,2.1,5.27,3.15,8.8,5.28.88,3.26,1.32,4.89,2.19,8.16-9.53-.88-14.24-1.3-23.63-2.11-.27-2.69-.41-4-.69-6.72l4.74-3.8c-.51-2.11-.76-3.16-1.27-5.26l-14.83,5.09c.29,1.82.44,2.73.74,4.56l-9.25,6.16c2.87,2.53,4.31,3.79,7.19,6.34l8.28-2.19c.77,1.66,1.15,2.5,1.92,4.17-8,4.38-12,6.57-20,10.92l-5.09-3.64c-4,1.89-5.94,2.84-9.91,4.72-1.12,3.3-1.69,4.94-2.82,8.23-8.25,7.29-12.39,10.91-20.8,18.08.14,2.22.22,3.33.35,5.56-8.51,6.73-12.81,10.06-21.56,16.63,2,8.18,2.89,12.27,4.6,20.44l-4.4,2.11c-3.21-4.45-4.84-6.66-8.15-11.07-.5-1.62-.75-2.43-1.26-4.05-7.18-1.19-10.79-1.77-18.08-2.93-3.56,1.71-5.34,2.56-8.94,4.25-6.26-.66-9.4-1-15.76-1.64-5.32,4-8.06,5.92-13.44,9.79,1.7,8.32,2.47,12.41,3.91,20.68,4.22,2.58,6.32,3.9,10.49,6.55,4.68-.37,7-.55,11.62-.94,1.57-2.51,2.35-3.77,3.9-6.29,5.11-.54,7.65-.81,12.7-1.37-2.08,7.35-3.13,11.05-5.27,18.5,7.69.63,11.51.95,19.09,1.59.2,6.76.29,10.17.46,17,3.63,2.33,5.45,3.5,9.06,5.86l5.22-4.11s8.48,3.76,9.69,3.08,20.85-11.35,20.85-11.35c4,1.37,6,2.06,10,3.45,8.76,1.63,13.13,2.46,21.89,4.15,9.52,7.14,14.28,10.77,23.85,18.16l6.93-1.24c7.64,4.64,11.47,7,19.17,11.74,3,5.89,4.44,8.86,7.41,14.82l12.21,2.19,5.73,5.33c7.62.91,11.47,1.38,19.1,2.2ZM303.61,351.77c2,1.77,2.94,2.66,4.89,4.45L303,357c-9-3-13.45-4.47-22.53-7.31l-6.9,0c-.82-1-1.23-1.51-2.06-2.51,2.84-.88,4.25-1.33,7.08-2.22l11.36,1.56C295.43,348.62,298.16,349.65,303.61,351.77ZM323.94,357c3.19,1.34,4.78,2,8,3.37l.6,2.56L322.86,365l-10.61-1.27-2.75-2.66,6.74.16.4-3.84ZM234.24,72.24,226.5,65.4c7.92-4.64,11.71-6.92,19.07-11.4,3.12.18,4.66.28,7.73.48-1.81,3.85-2.72,5.77-4.58,9.62,2.25,4.66,3.4,7,5.73,11.61l3.55-.23c.75-3.7,1.13-5.56,1.86-9.27,1.78.08,2.66.11,4.43.2.39,2.53.59,3.79,1,6.31l5.21,1.59c-2.65,3.17-4,4.76-6.75,8l-8.17-.09L246.68,85l-6.11-.77,2-3.7-8.15-4c2.45-1.55,3.66-2.33,6.06-3.86l-1.92-2.1Zm24.91-12.87c-.67-2.25-1-3.38-1.65-5.64l1.24-2L263.13,53l1.81-1.39c.17-1.73.26-2.6.44-4.33,3.53-.51,5.28-.75,8.77-1.24.93,1.49,1.4,2.23,2.35,3.71-.55,1.77-.83,2.65-1.39,4.41l-7.43,3c-1.12,2-1.69,2.94-2.83,4.9ZM275.83,70c1.52,1.57,2.29,2.36,3.83,3.92,1-1.44,1.49-2.16,2.47-3.59l8.66,1.53c-.53,3-.8,4.45-1.36,7.42,2.81,1.8,4.22,2.7,7.07,4.48-.76,2.1-1.15,3.14-1.94,5.24l-5.26-.39-1.55-3.47-8.75.45c-2.24-4.27-3.34-6.41-5.5-10.72C274.44,72.92,274.9,71.94,275.83,70Zm6.67-16.6,3.79-2.35c-.53-2.27-.79-3.41-1.29-5.69L288.73,44c1,1.64,1.55,2.45,2.61,4.08,1.65,1,2.48,1.55,4.16,2.58-1.28,4.56-1.9,6.82-3.17,11.34l-3-.2c-.61-2-.91-3.06-1.51-5.12C285.67,55.38,284.61,54.72,282.5,53.4ZM298,65c-.75-.26-1.46-10.34-1.46-10.34L300.94,52c1.78,3.11,2.7,4.65,4.56,7.72-.65,2.92-1,4.37-1.62,7.28Zm214.2,49.82a226.68,226.68,0,0,0-17.6,15.16c-6.89,1.35-10.56,2.2-18,4-5.57,5.1-8.41,7.73-14.05,13-4.5.48-6.77.74-11.29,1.26l1.78,3c-6,4.45-9,6.7-14.79,11.1-5.76,9.57-8.5,14.33-13.65,23.68-3.11,0-4.65,0-7.68-.09-5.64-2.38-8.34-3.63-13.63-6.16-2.6-6.64-3.87-9.94-6.3-16.49l-4-3.33c-1-6.56-1.5-9.83-2.33-16.33,2.57-3.86,3.81-5.77,6.24-9.57-2.07-2.15-3.13-3.21-5.26-5.3,1.68-2.89,2.5-4.32,4.11-7.18,3,.15,4.42.25,7.42.38.15-2,.21-3,.33-5-4.06-.64-6-1-9.94-1.68.52-4.65.72-7,1.07-11.52-4.31-8.08-6.62-12-11.2-19.94-8.8.22-13.08.3-21.46.43-2.06-3.3-3.09-5-5.13-8.26l4-3.77c-2.42-1.5-3.62-2.25-6-3.77.1-2.42.16-3.64.28-6.09l21.59-8.18c-.31-5.41-.44-8.15-.53-13.75-9,6.13-13.24,9-21.42,14.74-2.69,4.38-4,6.54-6.6,10.84l-9.57,5c.21,2.77.32,4.16.52,6.92l-4.29,4.25c-4.12-1.45-6.15-2.19-10.16-3.68-5.19-.09-7.75-.15-12.84-.26-1,1.5-1.5,2.26-2.52,3.77,9.07,2.12,13.68,3.16,23.14,5.17-2,2.87-3,4.31-5,7.19,0,0-18-1.54-18.6-1.48s-10.49-4.14-10.49-4.14c1.14-3.71,1.7-5.56,2.78-9.26-2.69-2.67-4-4-6.63-6.72.85-1.63,1.28-2.45,2.12-4.08,5.13,2,7.73,2.91,13,4.81l7.6-4c.4-3.05.61-4.58,1-7.64-3.68-.41-5.51-.62-9.13-1-.63-3-.93-4.56-1.51-7.64l2.87-1.74c-1.27-2.16-1.89-3.24-3.11-5.43,4.05-7.08,6.08-10.65,10.42-18,1.41.53,2.12.8,3.55,1.32.25,3.36.4,5,.75,8.31,1.27.74,1.91,1.1,3.21,1.83.74-.73,1.11-1.1,1.85-1.85-.64-3.66-.94-5.51-1.46-9.25l15.93-9.88,4.88.79c1-1.66,1.46-2.49,2.46-4.18,7.31-1.94,11.08-3,19-5.16.41,1,.62,1.53,1,2.55,4.15,0,6.22-.07,11.32-.29,6.33,1.46,10,2.1,17.65,3.32,3.93,3.88,6,5.77,10.15,9.49,8.92-.82,13.67-1.28,23.1-2.12-.36,2.95-.53,4.41-.84,7.31L439.24,29c.89-3.12,1.35-4.69,2.31-7.86,5.72,3,8.55,4.47,14,7.46,3.38-4.49,5.09-6.76,8.48-11.32-1-1.47-1.49-2.21-2.5-3.69,8.24-1.8,12.24-2.65,19.4-4.08,5.18-2.3,7.61-3.41,11.87-5.46,9.32,1.41,13.75,2.14,23,3.71-.23,1.56-.35,2.33-.58,3.87,5.23,2.58,7.85,3.87,13.1,6.49.41,1.37.62,2.06,1,3.43-5.64,1-8.45,1.55-14.05,2.62-1.64,2.13-2.47,3.2-4.11,5.31,3,.12,4.49.2,7.49.35l3-2.91,3.3.47c.51,2.36.76,3.53,1.27,5.87l11-4.08c4.48,1.83,6.73,2.76,11.23,4.64-6.47,5.66-9.72,8.42-16.21,13.88-3.82,8.39-5.75,12.49-9.59,20.67l4,2.33c-.27,1.42-.41,2.12-.69,3.54-3.41,0-5.11.07-8.49.16,3.31,4.72,5,7.1,8.35,11.93-2.61,4-3.91,6-6.48,10-1.88.34-2.82.51-4.68.87-2.3,2.7-3.44,4-5.69,6.8C510.27,108.25,510.89,110.4,512.16,114.77Zm767.34,34.75-6.18.23-13.54-5.33-6.48.68L1247,141l-5.49,1.45c3.73,3.61,5.6,5.41,9.34,9l-7.53,6.16c6,5.26,9,7.86,15,13,0,0-2.38,3.59-2.82,4.41s-7.48-2.57-7.48-2.57-21.28,13.88-22.24,15.74-10.62-3.67-10.62-3.67c-8.38,1.19-12.55,1.79-20.79,3.06-.6,4.09-.89,6.12-1.44,10.18,3.67,4.64,5.54,7,9.3,11.54-6,10.06-9,15.1-14.63,25.27-3,1.12-4.52,1.69-7.5,2.84-5.29-10.66-10.29-21.54-14.87-32.51q11.91-14.13,24.11-28c-6.13.05-9.16.08-15.11.17-1.47-1.6-2.18-2.4-3.66-4-3.34-.7-5.09-1-8.7-1.69-3.78,4.36-5.65,6.55-9.37,10.94,1.91,2.35,2.84,3.53,4.61,5.88-5.24-.23-8-.31-13.55-.44-6.17-1.82-9.4-2.71-16-4.45-11.7.4-17.7.7-29.22,1.38-9.27,8.77-13.63,13.21-21.8,22.25l5.11,5.54c12.23,1.6,18.68,2.43,31,4.27A269.73,269.73,0,0,1,1128,241.38c-2.3.12-3.46.19-5.8.33,2.59,5.89,3.8,8.84,6.11,14.72-5.27-.32-8-.45-13.47-.69-.28-9-.44-13.47-.89-22.43-2.81-1.68-4.24-2.52-7.13-4.2,1.17,4.84,1.72,7.25,2.77,12.08-2.73,5.67-4,8.52-6.65,14.27-5.2,4.31-7.74,6.5-12.71,10.94-1.9,1.81-2.84,2.72-4.7,4.54-5.56.12-8.33.2-13.76.37-1.26,2.87-1.88,4.31-3.1,7.2-2.7,2.28-4,3.43-6.63,5.75,2.3,2.73,3.45,4.1,5.73,6.83.87,4.68,1.3,7,2.14,11.73-5.46,1.13-8.15,1.72-13.4,2.91.61-4.83.93-7.23,1.56-12l-8-1.39c-1.28-3.45-1.92-5.18-3.21-8.63-4,.84-6,1.26-9.81,2.13-1.14-2.47-1.7-3.71-2.81-6.17-3.81,2.92-5.67,4.37-9.53,7.29l3.62,3.61,12.64.79c1,1.27,1.45,1.9,2.42,3.17-5,2.78-7.46,4.19-12.16,7,3.47,4.58,5.26,6.88,8.88,11.47,1.24,5.14,1.87,7.71,3.12,12.89-3.76,7-5.57,10.54-9.14,17.73-4.38,3.18-6.53,4.79-10.81,8-7.73,2.12-11.58,3.18-19.09,5.42-1.65,4.13-2.43,6.23-3.91,10.47l-5.38-1.3c.49-3.29.76-4.93,1.33-8.17l-7.11-.85c-2,3.2-3,4.82-5,8.09,4.62,5.06,7,7.59,11.78,12.64.28,6.4.49,9.63,1,16.14-3.11,1.9-4.65,2.86-7.73,4.8-3,2.63-4.43,4-7.35,6.63-.59-1.75-.88-2.63-1.45-4.38-5.68-4.23-8.48-6.35-14-10.59-1.08,3.47-1.61,5.22-2.64,8.74,1.78,4.12,2.69,6.19,4.55,10.33,3.54,3.07,5.33,4.61,8.94,7.68,2.09,10.18,3.24,15.32,5.68,25.64,2.89,2.11,4.35,3.17,7.28,5.27,0,0-.86,8.78-.79,9.68s7.45,1.59,7.45,1.59c1.33,2,2,3,3.34,5,0,0,9-2.14,10.73-2.2s9.4,5.58,9.4,5.58l-1.4,4c-12.38-2.51-18.53-3.85-30.74-6.62-.24-1.57-.36-2.36-.59-3.93l-8.06-2.21c-3.51-3.56-5.25-5.34-8.69-8.92-4.11-7.34-6.11-11-10-18.35-4.61-4.29-6.88-6.44-11.38-10.75,0-1.93,0-2.89-.06-4.81,0,0,14,5.6,15.16,5.89s2.75,6.28,2.75,6.28l5.73.24c-1.63-3.7-2.43-5.55-4-9.24-4.21-5-6.29-7.48-10.37-12.46.66-5.58,1-8.35,1.77-13.84-3-6.93-4.49-10.38-7.31-17.23l-5.45,3.11-4.35-3c.31-1.74.46-2.6.78-4.33-3.86-7.33-5.6-11-9.4-18.21l-9.24-1c-9.1,7.87-13.79,12-23,20.42-2.94,10.28-4.34,15.5-7.1,26.08-4.4,3.7-6.61,5.57-11.06,9.35-5.78-14.08-11.49-28.18-17.3-42.25.3-3.69.45-5.53.77-9.19-4.27.39-6.42.59-10.76,1-6.12-6.67-9.35-10-15.62-16.57-6.59-.18-9.87-.32-16.42-.66-11.24-2.81-22.44-5.88-33.56-9.13-6.15-5.34-9.22-8-15.38-13.33l-3.31,3.21c5.26,8.28,7.88,12.46,13.16,20.93,4.1.83,6.15,1.24,10.26,2,1.86-2.28,2.79-3.41,4.66-5.67,2.51,2.7,3.77,4,6.29,6.74,3,.47,4.5.7,7.5,1.14,1.79,2.31,2.68,3.46,4.48,5.76-3,5.07-4.45,7.62-7.39,12.74-7.28,3.3-10.91,4.92-18.13,8.12l-5.2,6.82c-11.81,3.21-17.68,4.74-29.37,7.78-2.56-6.1-3.85-9.13-6.42-15.14-5.87-7.75-8.81-11.61-14.71-19.2-1.14-4.2-1.72-6.27-2.86-10.39-5-8.21-7.54-12.25-12.6-20.23l-5.69,2.47c2.29,4.1,3.43,6.15,5.7,10.31l5.26,1.58c-.92,2.39-1.39,3.59-2.3,6Q732.88,358,740,373c6.64,6.49,10,9.76,16.59,16.29l2.62,6.5c10-1.68,15.07-2.53,25.18-4.36,1.44,2.08,2.15,3.12,3.58,5.2-4.11,9-6.15,13.5-10.21,22.64q-19,18.48-37.52,37.38c-.38,8.82-.57,13.25-.94,22.12l3.85,5.88c-.72,8.32-1.08,12.48-1.79,20.81L720.5,520.68c.57,3.36.86,5,1.43,8.38-.26,3.82-.39,5.73-.64,9.53l-9.23,8.24c0,3.14,0,4.72,0,7.85-7.88,8.87-15.82,17.69-23.73,26.54,0,0-12-.68-12.85-.75s-8.73,3.53-8.73,3.53c-2.7-1.8-4-2.7-6.76-4.47-1.49-8.16-2.27-12-3.79-20l-6.64-11c-1.42-8.31-2.12-12.5-3.53-20.95-3.78-7.94-5.68-11.93-9.49-19.88.88-5.75,1.33-8.64,2.22-14.42,2.35-4.66,3.52-7,5.89-11.68-1.65-9.64-2.47-14.46-4.12-24-5.27-7.45-7.92-11.14-13.26-18.4.9-7.58,1.35-11.36,2.27-18.86-2.73-3-4.1-4.49-6.85-7.44l-7.38,1.63c-2.76-3.57-4.14-5.34-6.92-8.85-4.58.32-6.87.48-11.46.83l-9.84,4.95c-4.24-.53-6.36-.79-10.61-1.3l-13.6,4.13c-6.85-3.92-10.29-5.86-17.2-9.68l-1.85-8.5c-4.39-3.37-6.58-5-11-8.35l-5.67.54q1.1-16.77,2.34-33.52l-3-4.17c5.67-9.88,8.47-14.87,14.06-24.79,4.6-3.39,6.9-5.07,11.51-8.42.71-4.53,1.06-6.8,1.76-11.32,4.64-3.08,7-4.61,11.64-7.62.93-2.55,1.4-3.81,2.33-6.34l-4.37-3-9.6-2.56c.68-11.71,1-17.53,1.67-29.08,10.24,0,15.39.08,25.63.21l2.43-5.79c-2.54-3.54-3.83-5.32-6.41-8.88l-6.44-1.19c.11-3.22.16-4.82.27-8l-5.52-2c1.82-1.41,2.73-2.11,4.56-3.5.2-4.06.3-6.09.51-10.13,2.76-2.21,4.14-3.3,6.93-5.46-2.13-1.49-3.2-2.24-5.33-3.75-2.65,2.18-4,3.27-6.59,5.48l-.7,6c-3.32,1.67-5,2.52-8.27,4.23L547.23,222c.64-2.67,1-4,1.61-6.66l-.35-5.29c5-3.42,7.5-5.1,12.56-8.38-.62-3.74-.94-5.6-1.56-9.33,4.23-1.32,6.35-2,10.62-3.22l7.24,6c.28,3.24.43,4.86.71,8.1l10.33,8.26c-.48,1.91-.72,2.87-1.19,4.79l5.18,1.54c-.31,2.78-.46,4.17-.77,7l6.72-1.94c2.22-2.6,3.34-3.9,5.58-6.48l11.43-3.86c-.22-4.32-.33-6.47-.56-10.78L621.5,197l4.46,4c-.52,1.86-.78,2.79-1.29,4.66,2.16.16,3.24.23,5.38.37l2-3.34c-3-4.63-4.5-6.95-7.56-11.61-5.4,1.91-8.12,2.84-13.56,4.7l-7-4.53c-1.41-6.47-2.13-9.71-3.57-16.17,8.9-6.54,13.39-9.75,22.28-16.37,4.21-5.8,6.31-8.69,10.5-14.57-.59-3.31-.87-4.94-1.48-8.28,10.52-5,20.74-10.67,31.2-15.82,8,.89,12,1.4,20.12,2.48l2.41,4.23c6.55,1.37,9.84,2.09,16.42,3.56,0,0,18.8,8.6,20.88,9.52s4.22,9.11,4.22,9.11l5-1.72c-.2-5-.3-7.48-.53-12.47h7.1c2.37,3.92,3.55,5.87,5.89,9.79,6.39-3.53,9.6-5.27,16-8.76,10.54-.74,15.81-1.08,26.28-1.76-2.95-2-4.43-3.07-7.41-5.12,0-2,0-3,0-5q16.35,4.49,32.67,9.13c-3.5-4.5-5.27-6.76-8.85-11.3,1.64-6.65,2.45-10,4.05-16.73l8.07.28c5.77,11.09,8.55,16.55,14,27.33,2,6.72,2.92,10.05,4.79,16.67.94-6.47,1.4-9.72,2.29-16.25-4.42-7.35-6.68-11.07-11.31-18.58,4.13-3.17,6.18-4.75,10.27-7.94l13.72,5.87,3.49-1.76c-4.1-4.82-6.19-7.26-10.42-12.18,6.67-2,10-3,16.49-5-3.15-2.15-4.73-3.23-7.94-5.4,8.32-7.1,12.41-10.68,20.34-17.94,3,1,4.49,1.41,7.44,2.34,2.28-2.42,3.41-3.63,5.65-6.06-.15-6.08-.25-9.15-.48-15.38l6.79-.13,4.61,6.09,7.06,3.8,7.93-3.26L924.2,70.17c-3.89,8.4-5.87,12.56-9.9,20.82l6.32,2.18c2-2.74,2.94-4.12,4.89-6.87,8.6-.69,12.86-1,21.43-1.59,3.58,2.19,5.37,3.29,9,5.47,2.33-1.38,3.49-2.07,5.83-3.43.16-2.16.24-3.24.38-5.4,6.5,1.56,9.77,2.35,16.39,4,1.16,3.86,1.74,5.77,2.88,9.57,5.67,3.08,8.53,4.62,14.33,7.71-.26-2.64-.39-4-.66-6.62,8.87-.78,13.38-1.12,22.72-1.68-2-2.7-3-4.05-4.93-6.78,1-2.46,1.48-3.7,2.47-6.17,11,.55,16.69.9,28.6,1.75,0,0,2.65,5.44,2.9,6.48s21.54,6.67,21.54,6.67c9.18-.51,14.57-.72,26.1-1,9.87,4.64,15.11,7,25.28,11.63q21-1.56,42.11-2.56a220.34,220.34,0,0,1,22.56,11.23l3.13-2a119.85,119.85,0,0,0-9.78-10.5c13.11,1.63,19,2.56,28.55,4.44,16.45,7,33,13.76,49.65,20.39l8.24-2.14,14.26,6c-.12,2.31-.18,3.47-.3,5.76l-4.45,2.16,5.79,10ZM631.44,211.74l6,1.28c4.48-2.2,6.71-3.33,11.14-5.59,5.3-.13,8-.16,13.3-.18.73-4.7,1.09-7.05,1.83-11.73,1.78-2.81,2.67-4.21,4.47-7,7.2-.57,10.83-.81,18.11-1.22L685,181.73c-8.13,1.29-12.17,2-20.17,3.46-3-5.55-4.49-8.31-7.52-13.81,3.83-4.88,5.76-7.3,9.67-12.13l-2.69-6.05c-7.7,9.07-11.43,13.71-18.91,22.9,2.85,3.83,4.25,5.72,7.07,9.56-2.46,2.28-3.69,3.43-6.13,5.74,0,0,.47,9.13.47,9.65S631.44,211.74,631.44,211.74ZM725.86,294l-5-3.4c-3.09.9-4.63,1.34-7.71,2.25-8.21-1.76-12.32-2.62-20.55-4.25-2.74-2.9-4.12-4.34-6.88-7.2.07-4.16.1-6.23.17-10.35-4.24.79-6.36,1.2-10.58,2,.49,1.86.73,2.8,1.22,4.67,2,.61,3.05.92,5.08,1.55-3.48,2.81-5.21,4.23-8.66,7.09-4-2.87-6.06-4.29-10.11-7.09l1.93-3.5c-3.78-5.84-5.68-8.72-9.5-14.43-5-.88-7.45-1.28-12.45-2.08-2.71-3.07-4.07-4.61-6.81-7.68-.24,2.56-.36,3.84-.61,6.41,7.67,5.52,11.4,8.19,18.89,13.85-1.66,4.32-2.49,6.5-4.14,10.86-4.68,1.2-7,1.85-11.73,3.11-.77-2.61-1.16-3.92-1.94-6.52l6.06-2.52c-1.16-3.24-1.74-4.85-2.9-8.07L629,265.33c-2.11-3.55-3.17-5.32-5.31-8.87L611,262.66l-7.91-1.09c-4.88,5.12-7.3,7.71-12.12,13,0,3.55,0,5.32,0,8.89-7.62,2.57-11.42,3.88-19,6.57l.8,3.67c5-.49,7.58-.72,12.63-1.18,0,0,13.14-6.39,14.44-6.41s29-1.47,29-1.47c1.57,3.48,2.35,5.23,3.9,8.73-1.9,2-2.85,3-4.74,5,7.4,1.89,11.08,2.84,18.38,4.77,6.68,3.33,10,5.06,16.65,8.6,1.27-3.81,1.91-5.7,3.19-9.46,3.52-.24,5.29-.35,8.82-.56,10.56,3.18,15.84,4.86,26.34,8.34l7.28-1.81c3.63.92,5.45,1.38,9.08,2.32C721,303.87,722.57,300.56,725.86,294Zm16.76-24.31c-6.55-6-9.85-9-16.5-14.92-5.37.59-8,.9-13.4,1.53-3.52-3.44-5.28-5.15-8.83-8.54-4.75,6-7.09,9-11.73,15.19,3.17,2.41,4.75,3.63,7.91,6.08,6.09-1.94,9.15-2.89,15.29-4.77,6.4,2.14,9.58,3.23,15.95,5.42ZM792,287.4q-9-14.2-18.23-28.27c1.9-2.85,2.86-4.27,4.78-7.1l-12.66,3.3c2.2,5.93,3.3,8.91,5.47,14.9,2.42,2.44,3.62,3.67,6,6.12-1.14,3.39-1.71,5.09-2.83,8.52l11,7.62c2.56-2,3.85-3.06,6.43-5.09Zm-180.85-220c-.26-6.16-.39-9.25-.66-15.48,6-.21,9-.33,15-.64,3.5-2.85,5.23-4.3,8.7-7.24,9.33.8,13.87,1,23.31,1.91L652,54.61c-4.77,1.61-7.11,2.47-11.84,4.07,0,0,5.29,3,6.7,3.49s6.54,13.13,6.54,13.13c-4.09-.3-6.1-.41-10.15-.7-.89-2.95-1.33-4.42-2.23-7.38l-4.2.29c-2,6.25-3,9.35-5,15.49C623.62,76.82,619.48,73.66,611.16,67.36ZM713.4,44c-4.76-2.58-7.14-3.86-11.9-6.39l4.81-4.13,6,2.68L716,32c1.8,1.6,2.7,2.4,4.49,4Zm15.34-20.82,4.9.56c2.41,4.6,3.6,6.89,6,11.44,4.7-5.22,7.06-7.86,11.76-13.18l4.13,2.59c-2,4.8-3,7.18-5,11.9L740.67,42l-15-.93C724.57,41,728.74,23.18,728.74,23.18Zm26.81,76.39c4.11-7.44,6.17-11.18,10.28-18.74,8.4-4.33,12.61-6.49,21-10.83,2.69,2.26,4,3.39,6.68,5.65-9,6.56-13.59,9.81-22.65,16.3,0,0-6.45,20.48-6.49,21.28s10,8.64,10,8.64L772.21,127c-8.21-3.83-12.36-5.75-20.71-9.53C753.13,110.35,753.94,106.78,755.55,99.57ZM873.2,51c-1.43-6.7-2.17-10.1-3.7-17,5.29,2,7.85,3,12.93,4.87.84,2,1.25,3.05,2.07,5.06C880,46.76,877.78,48.17,873.2,51ZM837.47,36c-1.17-2.82-1.77-4.24-3-7.1.44-5.87.65-8.84,1-14.86l4.58.8c3.72,4.53,5.56,6.78,9.18,11.25,4,.58,6,.86,9.87,1.45,3,4.87,4.46,7.29,7.35,12.08-1.24,1.37-1.87,2.06-3.12,3.42C853.3,40.19,848.1,38.77,837.47,36Zm145.2,25L979.5,51c4.15.48,6.24.72,10.46,1.23.19-1.3.28-2,.47-3.25l13.81,3c.51,2.4.76,3.6,1.26,6-5.46,2.75-8.14,4.15-13.45,7Zm29.5-3.38c-.67-1.73-1-2.6-1.67-4.34,2.86-.12,4.31-.17,7.23-.27,3.08,1.45,4.63,2.18,7.77,3.63L1023.24,60Zm-6.67,15.08L1008,70l8.55,3.69c-.63,1.33-1,2-1.58,3.31l-7.74-1Zm-226,430c-1.45,5-2.18,7.46-3.62,12.44.59,1.33.89,2,1.49,3.32l-4.66,1.87c-3.36,9.93-5,14.89-8.33,24.77-3.8.4-5.69.6-9.47,1-1.76-5.46-2.65-8.21-4.41-13.7L756.42,522c-.79-4.53-1.19-6.8-2-11.34l11.44-5.79c3.9-5.14,5.86-7.71,9.79-12.86ZM898,404c1.39,2.49,2.09,3.74,3.5,6.23L900.35,416l-5-.18c-.36-3.11-.54-4.66-.88-7.75ZM536.5,152c-6.84,3.06-10.22,4.65-16.88,8-5-1-7.54-1.48-12.5-2.34-2.26-4.8-3.39-7.18-5.62-11.89,1.91-1.12,2.87-1.68,4.8-2.77,2.17,1.1,3.26,1.67,5.45,2.8,7.15-1.27,10.79-1.81,18.12-2.77C532.52,146.59,533.85,148.39,536.5,152Zm633,380.51c.43,4.58.64,6.86,1,11.38-2.91,6.25-4.42,9.35-7.08,15.73-5.88,5.33-8.74,8-14.4,13.48-2.82,6.75-4.16,10.15-6.86,16.91l-6.87.93c-4,2.75-6,4.13-9.93,6.91-2.2-1.88-3.28-2.82-5.43-4.71-2.52,1.94-3.76,2.91-6.21,4.87-4.69-1.56-7-2.32-11.62-3.94.23-2.73.34-4.09.55-6.84-1.5-2.79-2.24-4.2-3.72-7,0,0-5.09.83-5.7.72s1.86-7.14,1.86-7.14c-3,2-4.42,3.06-7.29,5.1-.86-3.48-1.29-5.23-2.17-8.74-3.56-2.18-5.29-3.29-8.7-5.54-7.5,1.64-11,2.44-18.36,4.11-2.82,2.69-4.25,4-7.19,6.77-5.41,1.2-8.15,1.81-13.91,3.11-4.24,2.87-6.46,4.36-11,7.26-3.22-2.15-4.84-3.23-8.11-5.43,1.83-2.48,2.74-3.72,4.52-6.21-2.18-12.78-4.68-25.39-7.34-38.08,1.92-4.46,2.87-6.69,4.74-11.14,10.65-4.23,15.7-6.3,25.29-10.13,1.46-4.67,2.18-7,3.65-11.62,2-1,3-1.55,5-2.57l1-4.73c2.53-2.12,3.8-3.17,6.38-5.26,4.6.8,6.9,1.19,11.63,2,1.3-3.42,2-5.12,3.34-8.5,3.28-1.6,4.95-2.4,8.41-4,6.7,1.06,9.84,1.56,17.53,2.51-2.28,4.45-3.24,6.7-5.28,11.2,5.92,3.87,9.19,5.73,15.72,9.54,2.79-.26,4.2-.38,7-.61,2.17-9.56,3.3-14.33,5.7-23.78h4.58c1.22,4.2,1.83,6.3,3.06,10.47l6.19,2.3c1.79,6.72,2.69,10.07,4.47,16.71,4.22,2.38,6.34,3.56,10.54,5.89.85,2.49,1.27,3.73,2.1,6.21l5.07-.55c3.15,5.07,4.71,7.56,7.73,12.47Zm-41.83,75.62c.33,1.4.5,2.1.84,3.5l-4.17,7c-2.54,1.35-3.8,2-6.28,3.39-1.84-2.3-2.75-3.45-4.55-5.78.87-3.27,1.31-4.92,2.16-8.22.88,0,12,.12,12,.12Zm114.85-8.1c.39,2.05.59,3.07,1,5.09-2,1.38-3,2.06-5.14,3.39-.3,2-.45,3-.77,5-2.3,1.49-3.47,2.22-5.87,3.67-3,3.93-4.51,5.85-7.76,9.62-2.75,2.51-4.17,3.74-7.09,6.17-5.31-.39-8-.63-13.37-1.15,1.66-2.74,2.47-4.13,4-6.93,7.64-4.63,11.32-7,18.24-12,4.08-5,6-7.64,9.69-12.93,2.86,0,4.27,0,7,0Zm13.39-21c2.72-.41,4-.64,6.6-1.15A176.4,176.4,0,0,1,1248.14,602c-2.29-3.82-3.43-5.78-5.64-9.73,2.6-3.5,3.85-5.28,6.28-8.88,0,0-3.79-14.39-4.17-15.49,1.17-.75,1.75-1.13,2.89-1.9,3.14,5.23,4.85,7.87,8.4,13.06ZM1155.14,461c-.25,1.54-.37,2.31-.61,3.86,5.19,4.1,7.8,6.13,13,10.12-5.43-.57-8.15-.86-13.56-1.45-2.79-2.37-4.19-3.56-7-6l-8.5-1.2c-2.66,1.95-4,2.94-6.57,4.93-9.8-2-14.63-3-23.89-4.85,2.49-2.83,3.76-4.24,6.33-7-12.16-3-17.72-4.35-28.17-7.38-.12-2.31-.17-3.46-.28-5.75-1.76-1.49-2.64-2.24-4.38-3.74,2-1.84,3-2.76,5.09-4.58,2.75,1.07,4.13,1.6,7,2.66.21,2.82.32,4.23.55,7.06,1.75,1.2,2.63,1.79,4.42,3,3.91-2.88,6-4.32,10.31-7.12q18.54,5.94,37.13,11.73C1149.61,457.61,1151.46,458.75,1155.14,461Zm23.75-8,4.61,3.95-6.11,1c-.33,1-.5,1.44-.83,2.41L1165.15,462l-6.65-2.91c4.87-.75,7.32-1.12,12.22-1.85C1174,455.53,1175.61,454.69,1178.89,453ZM1032.5,418.43c-2,2.3-2.92,3.46-4.83,5.79,1.85,3.94,2.79,5.91,4.67,9.86-3.79,7.84-5.59,11.82-9.18,19.92-7.94-2.42-11.91-3.49-19.73-5.86-2-6.05-3-9.07-4.93-15.1l7.24-1c7.49-7.86,11.31-11.72,19.26-19Zm23.9,18.41c-6.87.86-10.22,1.3-17,2.22.14,1.28.21,1.92.34,3.2,3.76-.09,5.63-.13,9.41-.2-1.53,1.37-2.28,2.06-3.78,3.44l6,7.87a72.8,72.8,0,0,0-5.43,5.4c-.52.88-1.93-4.53-1.93-4.53-1.63,2.28-2.44,3.43-4,5.73l-2.75,0-2.8-7.64c1.33-6.9,2-10.32,3.56-17.09,0,0,18.9-4.14,19.35-4.27s-1,5.84-1,5.84Zm-27.9,33.59c5.08-1,7.56-1.49,12.52-2.43,3.77.11,5.64.18,9.4.31,0,0,1.41,2,1,2.12s-9.25,2.71-9.25,2.71,1.31,3.7.77,3.86S1028.5,470.43,1028.5,470.43Zm37.11-2.43c.36,1,.53,1.55.89,2.58-5,2.93-7.35,4.41-12.08,7.42a18,18,0,0,0-1.92-2.74c1.26-1.95,1.89-2.92,3.18-4.85C1059.6,469.43,1061.58,469,1065.61,468Zm1.89-18.66,12-.34c-.16,1.27-.23,1.9-.38,3.17l-8.6.83C1069.31,451.54,1068.7,450.81,1067.5,449.34Zm-2-15.06,6-1.28c-1.24,2.64-1.85,4-3,6.62l-2.64.38C1065.69,437.71,1065.62,436.56,1065.5,434.28Zm-32-55.39c1.52-4,2.31-6,4-9.89l6.1,1c.26,1.85.39,2.78.68,4.64-.91,2.07-1.36,3.11-2.23,5.2,4,3.69,6,5.55,10,9.26l6.44,2.7c-.58,1.68-.87,2.53-1.43,4.23-2.58-1-3.87-1.53-6.43-2.56-.93-1.76-1.39-2.64-2.31-4.4l-4.94-3.29c-1.3,2.83-1.93,4.26-3.16,7.14C1037.45,387.25,1036.1,384.45,1033.5,378.89Zm11,21.81c.09-2.29.14-3.43.26-5.7l8.74,5.2-4.65,4.71c-.79.81-4.35-4.21-4.35-4.21Zm14.74,2.3,3.26,5.78c-1.34,3.26-2,4.91-3.23,8.22l-5-.57c-.83-2.09-1.24-3.14-2.06-5.23l-4.53.7c-1.67,1-2.5,1.44-4.15,2.4.58-2.34.88-3.51,1.49-5.84,2.8-.58,4.2-.87,7-1.43C1054.88,405.4,1056.32,404.6,1059.24,403Zm-19.79-48c-1.59-2.45-2.38-3.67-4-6.11,1.78-2.77,2.67-4.15,4.48-6.89l3.52.86C1041.85,347.68,1041,350.1,1039.45,355Zm98.09-86c.38,1.68.57,2.51,1,4.19-2.94-.23-4.53-.37-7.23-.53-1.67,1.43-2.5,2.15-4.16,3.59-2.67-.89-4-1.34-6.77-2.22-2,1.16-3,1.75-5,2.93-1.93-.63-2.9-.95-4.86-1.57,0-2,0-3,0-5.05,3-.23,4.44-.33,7.38-.53.64-3.55,1-5.32,1.62-8.85,4,2.48,5.91,3.72,9.66,6.22C1132.45,267.91,1134.07,268.27,1137.54,269Zm-27.27,25.53c1.89-5.88,2.87-8.79,4.88-14.57,2.37.41,3.54.62,5.86,1.05,1,3.6,1.5,5.41,2.49,9-1.66,2.27-2.49,3.4-4.13,5.7-.19,3.87-.27,5.81-.41,9.71-8.12,2.49-12.25,3.8-20.37,6.53-3.87-.55-5.81-.82-9.68-1.35-2.74,1.93-4.09,2.9-6.78,4.87-.85,2.18-1.27,3.27-2.11,5.47l-4.48-.68c-.42-3.36-.62-5-1-8.38,4.27-4,6.46-5.92,10.93-9.77,4.27-.6,6.43-.89,10.74-1.46,1.38-2.33,2.08-3.49,3.49-5.8C1103.91,294.76,1106,294.69,1110.27,294.57Z" fill="#fff" stroke="#aaaaaa"/>
</svg>